<svg width="40" height="40" viewBox="0 0 40 40" fill="none" xmlns="http://www.w3.org/2000/svg">
<rect width="40" height="40" fill="#35127C"/>
<path fill-rule="evenodd" clip-rule="evenodd" d="M23.1871 11.8413C20.7918 11.8413 18.8501 13.783 18.8501 16.1783V31.6406C18.8501 33.3234 17.486 34.6875 15.8032 34.6875C14.1205 34.6875 12.7563 33.3234 12.7563 31.6406V16.1783C12.7563 10.4175 17.4264 5.74752 23.1871 5.74752C28.9479 5.74752 33.6179 10.4175 33.6179 16.1783C33.6179 21.9391 28.9479 26.6091 23.1871 26.6091C21.5044 26.6091 20.1402 25.2449 20.1402 23.5622C20.1402 21.8795 21.5044 20.5153 23.1871 20.5153C25.5824 20.5153 27.5241 18.5736 27.5241 16.1783C27.5241 13.783 25.5824 11.8413 23.1871 11.8413Z" fill="url(#paint0_linear_7331_2804)"/>
<path fill-rule="evenodd" clip-rule="evenodd" d="M26.5472 18.9775C25.0316 20.8323 22.2994 21.1073 20.4446 19.5917L11.4002 12.2013C10.0971 11.1365 8.17764 11.3297 7.11289 12.6327C6.04814 13.9358 6.24131 15.8552 7.54436 16.92L16.5888 24.3104C21.0497 27.9555 27.6209 27.2942 31.266 22.8333C34.9111 18.3724 34.2497 11.8012 29.7889 8.1561C28.4858 7.09135 26.5663 7.28453 25.5016 8.58757C24.4368 9.89062 24.63 11.8101 25.9331 12.8748C27.7879 14.3904 28.0628 17.1227 26.5472 18.9775Z" fill="url(#paint1_linear_7331_2804)"/>
<path d="M11.0937 14.6094C11.0937 15.5155 10.3592 16.25 9.45312 16.25C8.54703 16.25 7.8125 15.5155 7.8125 14.6094C7.8125 13.7033 8.54703 12.9688 9.45312 12.9688C10.3592 12.9688 11.0937 13.7033 11.0937 14.6094Z" fill="white"/>
<defs>
<linearGradient id="paint0_linear_7331_2804" x1="16.8696" y1="34.5918" x2="20.9323" y2="10.4456" gradientUnits="userSpaceOnUse">
<stop stop-color="#A9FFD6"/>
<stop offset="0.586163" stop-color="#9831FF"/>
<stop offset="1" stop-color="#F55EC7"/>
</linearGradient>
<linearGradient id="paint1_linear_7331_2804" x1="7.2876" y1="13.7801" x2="24.6116" y2="13.8951" gradientUnits="userSpaceOnUse">
<stop stop-color="#FFCEB9"/>
<stop offset="0.617431" stop-color="#F65EC6"/>
</linearGradient>
</defs>
</svg>
